<svg xmlns="http://www.w3.org/2000/svg" xmlns:svgjs="http://svgjs.com/svgjs" xmlns:xlink="http://www.w3.org/1999/xlink" id="SvgjsSvg1006" width="1116.75" height="432" version="1.1"><defs id="SvgjsDefs1007"><marker id="SvgjsMarker1064" stroke-dasharray="0 0" markerHeight="10" markerUnits="userSpaceOnUse" markerWidth="14" orient="auto" refX="10" refY="5" viewBox="0 0 14 10"><path id="SvgjsPath1065" fill="#323232" stroke="#323232" stroke-width="1" d="M0,0 L14,5 L0,10 L0,0"/></marker><marker id="SvgjsMarker1068" stroke-dasharray="0 0" markerHeight="10" markerUnits="userSpaceOnUse" markerWidth="14" orient="auto" refX="10" refY="5" viewBox="0 0 14 10"><path id="SvgjsPath1069" fill="#323232" stroke="#323232" stroke-width="1" d="M0,0 L14,5 L0,10 L0,0"/></marker><marker id="SvgjsMarker1072" stroke-dasharray="0 0" markerHeight="10" markerUnits="userSpaceOnUse" markerWidth="14" orient="auto" refX="10" refY="5" viewBox="0 0 14 10"><path id="SvgjsPath1073" fill="#323232" stroke="#323232" stroke-width="1" d="M0,0 L14,5 L0,10 L0,0"/></marker><marker id="SvgjsMarker1097" stroke-dasharray="0 0" markerHeight="10" markerUnits="userSpaceOnUse" markerWidth="14" orient="auto" refX="10" refY="5" viewBox="0 0 14 10"><path id="SvgjsPath1098" fill="#323232" stroke="#323232" stroke-width="1" d="M0,0 L14,5 L0,10 L0,0"/></marker></defs><g id="SvgjsG1008" transform="translate(25,25)"><path id="SvgjsPath1009" fill="#fff" fill-opacity="1" stroke="none" d="M 0 0L 1013 0L 1013 382L 0 382Z"/></g><g id="SvgjsG1012" transform="translate(29,52)"><path id="SvgjsPath1013" fill="#fff" fill-opacity="1" stroke="rgba(76,175,80,1)" stroke-width="2" d="M 0 0L 545 0L 545 292L 0 292Z"/></g><g id="SvgjsG1016" transform="translate(371,131)"><path id="SvgjsPath1017" fill="#fff" fill-opacity="1" stroke="rgba(76,175,80,1)" stroke-width="2" d="M 0 0L 188 0L 188 181L 0 181Z"/></g><g id="SvgjsG1020" transform="translate(380,141.5)"><path id="SvgjsPath1021" fill="#fff" fill-opacity="1" stroke="rgba(25,118,210,1)" stroke-dasharray="10 6" stroke-width="2" d="M 0 0L 171 0L 171 160L 0 160Z"/></g><g id="SvgjsG1024" transform="translate(46,131)"><path id="SvgjsPath1025" fill="#fff" fill-opacity="1" stroke="rgba(50,50,50,1)" stroke-width="2" d="M 0 0L 101 0L 101 181L 0 181Z"/><g id="SvgjsG1026"><text id="SvgjsText1027" width="81" y="71.375" fill="#323232" align="middle" anchor="middle" family="微软雅黑" font-family="微软雅黑" font-size="13" font-weight="700" lineHeight="125%" opacity="1" size="13" text-anchor="middle" transform="rotate(0)" weight="700"><tspan id="SvgjsTspan1028" x="50.5" dy="16"><tspan id="SvgjsTspan1029">prefix</tspan></tspan><tspan id="SvgjsTspan1030" x="50.5" dy="16"><tspan id="SvgjsTspan1031">0x1901</tspan></tspan></text></g></g><g id="SvgjsG1032" transform="translate(163,131)"><path id="SvgjsPath1033" fill="#fff" fill-opacity="1" stroke="rgba(76,175,80,1)" stroke-dasharray="3 4" stroke-width="2" d="M 0 0L 192 0L 192 181L 0 181Z"/><g id="SvgjsG1034"><text id="SvgjsText1035" width="172" y="79.875" fill="#323232" align="middle" anchor="middle" family="微软雅黑" font-family="微软雅黑" font-size="13" font-weight="700" lineHeight="125%" opacity="1" size="13" text-anchor="middle" transform="rotate(0)" weight="700"><tspan id="SvgjsTspan1036" x="96" dy="16"><tspan id="SvgjsTspan1037">EIP712Domain Hash</tspan></tspan></text></g></g><g id="SvgjsG1038" transform="translate(390,153)"><path id="SvgjsPath1039" fill="#fff" fill-opacity="1" stroke="rgba(76,175,80,1)" stroke-dasharray="3 4" stroke-width="2" d="M 0 0L 154 0L 154 25L 0 25Z"/><g id="SvgjsG1040"><text id="SvgjsText1041" width="134" y="1.875" fill="#323232" align="middle" anchor="middle" family="微软雅黑" font-family="微软雅黑" font-size="13" font-weight="400" lineHeight="125%" opacity="1" size="13" text-anchor="middle" transform="rotate(0)" weight="400"><tspan id="SvgjsTspan1042" x="77" dy="16"><tspan id="SvgjsTspan1043">Message Type Hash</tspan></tspan></text></g></g><g id="SvgjsG1044" transform="translate(390,193)"><path id="SvgjsPath1045" fill="#fff" fill-opacity="1" stroke="rgba(50,50,50,1)" stroke-width="2" d="M 0 0L 154 0L 154 20L 0 20Z"/><g id="SvgjsG1046"><text id="SvgjsText1047" width="134" y="-.625" fill="#323232" align="middle" anchor="middle" family="微软雅黑" font-family="微软雅黑" font-size="13" font-weight="400" lineHeight="125%" opacity="1" size="13" text-anchor="middle" transform="rotate(0)" weight="400"><tspan id="SvgjsTspan1048" x="77" dy="16"><tspan id="SvgjsTspan1049">property 1</tspan></tspan></text></g></g><g id="SvgjsG1050" transform="translate(390,223)"><path id="SvgjsPath1051" fill="#fff" fill-opacity="1" stroke="rgba(50,50,50,1)" stroke-width="2" d="M 0 0L 154 0L 154 20L 0 20Z"/><g id="SvgjsG1052"><text id="SvgjsText1053" width="134" y="-.625" fill="#323232" align="middle" anchor="middle" family="微软雅黑" font-family="微软雅黑" font-size="13" font-weight="400" lineHeight="125%" opacity="1" size="13" text-anchor="middle" transform="rotate(0)" weight="400"><tspan id="SvgjsTspan1054" x="77" dy="16"><tspan id="SvgjsTspan1055">property 2</tspan></tspan></text></g></g><g id="SvgjsG1056" transform="translate(390,271)"><path id="SvgjsPath1057" fill="#fff" fill-opacity="1" stroke="rgba(50,50,50,1)" stroke-width="2" d="M 0 0L 154 0L 154 20L 0 20Z"/><g id="SvgjsG1058"><text id="SvgjsText1059" width="134" y="-.625" fill="#323232" align="middle" anchor="middle" family="微软雅黑" font-family="微软雅黑" font-size="13" font-weight="400" lineHeight="125%" opacity="1" size="13" text-anchor="middle" transform="rotate(0)" weight="400"><tspan id="SvgjsTspan1060" x="77" dy="16"><tspan id="SvgjsTspan1061">property n</tspan></tspan></text></g></g><g id="SvgjsG1062"><path id="SvgjsPath1063" fill="none" stroke="#323232" stroke-width="2" marker-end="url(#SvgjsMarker1064)" d="M532 166.5L563.5 166.5L563.5 166.5L595 166.5"/></g><g id="SvgjsG1066"><path id="SvgjsPath1067" fill="none" stroke="#323232" stroke-width="2" marker-end="url(#SvgjsMarker1068)" d="M531 203.5L563 203.5L563 203.5L595 203.5"/></g><g id="SvgjsG1070"><path id="SvgjsPath1071" fill="none" stroke="#323232" stroke-width="2" marker-end="url(#SvgjsMarker1072)" d="M527 256.25L562 256.25L562 256.25L597 256.25"/></g><g id="SvgjsG1074" transform="translate(480,148.8125)"><path id="SvgjsPath1075" fill="none" stroke="none" d="M 0 0L 438 0L 438 31L 0 31Z"/><g id="SvgjsG1076"><text id="SvgjsText1077" width="438" y="4.875" fill="#323232" align="middle" anchor="middle" family="微软雅黑" font-family="微软雅黑" font-size="13" font-weight="400" lineHeight="125%" opacity="1" size="13" text-anchor="middle" transform="rotate(0)" weight="400"><tspan id="SvgjsTspan1078" x="219" dy="16"><tspan id="SvgjsTspan1079" style="font-weight:700">hash(type)</tspan><tspan id="SvgjsTspan1080"> </tspan><tspan id="SvgjsTspan1081" style="font-size:inherit">input as bytes32</tspan></tspan></text></g></g><g id="SvgjsG1082" transform="translate(462.5,190.5)"><path id="SvgjsPath1083" fill="none" stroke="none" d="M 0 0L 368 0L 368 31L 0 31Z"/><g id="SvgjsG1084"><text id="SvgjsText1085" width="368" y="4.875" fill="#323232" align="middle" anchor="middle" family="微软雅黑" font-family="微软雅黑" font-size="13" font-weight="700" lineHeight="125%" opacity="1" size="13" text-anchor="middle" transform="rotate(0)" weight="700"><tspan id="SvgjsTspan1086" x="184" dy="16"><tspan id="SvgjsTspan1087">propreties</tspan></tspan></text></g></g><g id="SvgjsG1088" transform="translate(611.5,243)"><path id="SvgjsPath1089" fill="none" stroke="none" d="M 0 0L 397 0L 397 26.5L 0 26.5Z"/><g id="SvgjsG1090"><text id="SvgjsText1091" width="397" y="2.625" fill="#323232" align="middle" anchor="middle" family="微软雅黑" font-family="微软雅黑" font-size="13" font-weight="400" lineHeight="125%" opacity="1" size="13" text-anchor="middle" transform="rotate(0)" weight="400"><tspan id="SvgjsTspan1092" x="198.5" dy="16"><tspan id="SvgjsTspan1093" style="font-weight:700">rawEncode result</tspan><tspan id="SvgjsTspan1094"> which should be 32bytes * (len(properties) + 1)</tspan></tspan></text></g></g><g id="SvgjsG1095"><path id="SvgjsPath1096" fill="none" stroke="#323232" stroke-width="2" marker-end="url(#SvgjsMarker1097)" d="M559.0936922129633 306.0773817382593L578.1718461064817 306.0773817382593L578.1718461064817 306.0773817382593L598.25 306.0773817382593"/></g><g id="SvgjsG1099" transform="translate(470.25,291)"><path id="SvgjsPath1100" fill="none" stroke="none" d="M 0 0L 414 0L 414 24L 0 24Z"/><g id="SvgjsG1101"><text id="SvgjsText1102" width="414" y="1.375" fill="#323232" align="middle" anchor="middle" family="微软雅黑" font-family="微软雅黑" font-size="13" font-weight="700" lineHeight="125%" opacity="1" size="13" text-anchor="middle" transform="rotate(0)" weight="700"><tspan id="SvgjsTspan1103" x="207" dy="16"><tspan id="SvgjsTspan1104">hashStruct(message)</tspan></tspan></text></g></g><g id="SvgjsG1105" transform="translate(610.5,52)"><path id="SvgjsPath1106" fill="#f5f5f5" fill-opacity="1" stroke="none" d="M 0 0L 358.5 0L 358.5 85L 0 85Z"/></g><g id="SvgjsG1109" transform="translate(625.75,66.5)"><path id="SvgjsPath1110" fill="#fff" fill-opacity="1" stroke="rgba(76,175,80,1)" stroke-width="2" d="M 0 0L 65.5 0L 65.5 20L 0 20Z"/></g><g id="SvgjsG1113" transform="translate(709.75,64.75)"><path id="SvgjsPath1114" fill="#fff" fill-opacity="1" stroke="rgba(76,175,80,1)" stroke-dasharray="3 4" stroke-width="2" d="M 0 0L 65.5 0L 65.5 23.5L 0 23.5Z"/></g><g id="SvgjsG1117" transform="translate(793.75,66.5)"><path id="SvgjsPath1118" fill="#fff" fill-opacity="1" stroke="rgba(25,118,210,1)" stroke-dasharray="10 6" stroke-width="2" d="M 0 0L 62 0L 62 20L 0 20Z"/></g><g id="SvgjsG1121" transform="translate(874.25,67)"><path id="SvgjsPath1122" fill="#fff" fill-opacity="1" stroke="rgba(50,50,50,1)" stroke-width="2" d="M 0 0L 60 0L 60 19L 0 19Z"/></g><g id="SvgjsG1127" transform="translate(597.25,92)"><path id="SvgjsPath1128" fill="none" stroke="none" d="M 0 0L 117 0L 117 20L 0 20Z"/><g id="SvgjsG1129"><text id="SvgjsText1130" width="117" y="-.625" fill="#323232" align="middle" anchor="middle" family="微软雅黑" font-family="微软雅黑" font-size="13" font-weight="400" lineHeight="125%" opacity="1" size="13" text-anchor="middle" transform="rotate(0)" weight="400"><tspan id="SvgjsTspan1131" x="58.5" dy="16"><tspan id="SvgjsTspan1132">keccak</tspan></tspan></text></g></g><g id="SvgjsG1133" transform="translate(766.25,92)"><path id="SvgjsPath1134" fill="none" stroke="none" d="M 0 0L 117 0L 117 20L 0 20Z"/><g id="SvgjsG1135"><text id="SvgjsText1136" width="117" y="-.625" fill="#323232" align="middle" anchor="middle" family="微软雅黑" font-family="微软雅黑" font-size="13" font-weight="400" lineHeight="125%" opacity="1" size="13" text-anchor="middle" transform="rotate(0)" weight="400"><tspan id="SvgjsTspan1137" x="58.5" dy="16"><tspan id="SvgjsTspan1138">abi.encode</tspan></tspan></text></g></g><g id="SvgjsG1139" transform="translate(845.75,99.625)"><path id="SvgjsPath1140" fill="none" stroke="none" d="M 0 0L 117 0L 117 20L 0 20Z"/><g id="SvgjsG1141"><text id="SvgjsText1142" width="117" y="-9.125" fill="#323232" align="middle" anchor="middle" family="微软雅黑" font-family="微软雅黑" font-size="13" font-weight="400" lineHeight="125%" opacity="1" size="13" text-anchor="middle" transform="rotate(0)" weight="400"><tspan id="SvgjsTspan1143" x="58.5" dy="16"><tspan id="SvgjsTspan1144">property</tspan></tspan><tspan id="SvgjsTspan1145" x="58.5" dy="16"><tspan id="SvgjsTspan1146">or constant</tspan></tspan></text></g></g><g id="SvgjsG1147" transform="translate(684,99.625)"><path id="SvgjsPath1148" fill="none" stroke="none" d="M 0 0L 117 0L 117 20L 0 20Z"/><g id="SvgjsG1149"><text id="SvgjsText1150" width="117" y="-9.125" fill="#323232" align="middle" anchor="middle" family="微软雅黑" font-family="微软雅黑" font-size="13" font-weight="400" lineHeight="125%" opacity="1" size="13" text-anchor="middle" transform="rotate(0)" weight="400"><tspan id="SvgjsTspan1151" x="58.5" dy="16"><tspan id="SvgjsTspan1152">keccak</tspan></tspan><tspan id="SvgjsTspan1153" x="58.5" dy="16"><tspan id="SvgjsTspan1154">(no circuit)</tspan></tspan></text></g></g><g id="SvgjsG1155" transform="translate(677.75,291)"><path id="SvgjsPath1156" fill="none" stroke="none" d="M 0 0L 414 0L 414 24L 0 24Z"/><g id="SvgjsG1157"><text id="SvgjsText1158" width="414" y="1.375" fill="#323232" align="middle" anchor="middle" family="微软雅黑" font-family="微软雅黑" font-size="13" font-weight="400" lineHeight="125%" opacity="1" size="13" text-anchor="middle" transform="rotate(0)" weight="400"><tspan id="SvgjsTspan1159" x="207" dy="16"><tspan id="SvgjsTspan1160">keccak of encode results should be 32bytes</tspan></tspan></text></g></g><g id="SvgjsG1161" transform="translate(611.5,193.5)"><path id="SvgjsPath1162" fill="none" stroke="none" d="M 0 0L 414 0L 414 24L 0 24Z"/><g id="SvgjsG1163"><text id="SvgjsText1164" width="414" y="1.375" fill="#323232" align="middle" anchor="middle" family="微软雅黑" font-family="微软雅黑" font-size="13" font-weight="400" lineHeight="125%" opacity="1" size="13" text-anchor="middle" transform="rotate(0)" weight="400"><tspan id="SvgjsTspan1165" x="207" dy="16"><tspan id="SvgjsTspan1166">int(8, 16, 32, 64, 128, 256), bytes(16, 20, 32)</tspan></tspan></text></g></g><g id="SvgjsG1167" transform="matrix(6.123233995736766e-17,1,-1,6.123233995736766e-17,523.25,196)"><path id="SvgjsPath1168" fill="none" stroke="none" d="M 0 0L 120 0L 120 40L 0 40Z"/><g id="SvgjsG1169"><text id="SvgjsText1170" width="120" y=".25" fill="#323232" align="middle" anchor="middle" family="微软雅黑" font-family="微软雅黑" font-size="22" font-weight="700" lineHeight="125%" opacity="1" size="22" text-anchor="middle" transform="rotate(0)" weight="700"><tspan id="SvgjsTspan1171" x="60" dy="27"><tspan id="SvgjsTspan1172">...</tspan></tspan></text></g></g><g id="SvgjsG1173" transform="matrix(6.123233995736766e-17,1,-1,6.123233995736766e-17,455.25,196)"><path id="SvgjsPath1174" fill="none" stroke="none" d="M 0 0L 120 0L 120 40L 0 40Z"/><g id="SvgjsG1175"><text id="SvgjsText1176" width="120" y=".25" fill="#323232" align="middle" anchor="middle" family="微软雅黑" font-family="微软雅黑" font-size="22" font-weight="700" lineHeight="125%" opacity="1" size="22" text-anchor="middle" transform="rotate(0)" weight="700"><tspan id="SvgjsTspan1177" x="60" dy="27"><tspan id="SvgjsTspan1178">...</tspan></tspan></text></g></g><g id="SvgjsG1179" transform="matrix(6.123233995736766e-17,1,-1,6.123233995736766e-17,490.25,196)"><path id="SvgjsPath1180" fill="none" stroke="none" d="M 0 0L 120 0L 120 40L 0 40Z"/><g id="SvgjsG1181"><text id="SvgjsText1182" width="120" y=".25" fill="#323232" align="middle" anchor="middle" family="微软雅黑" font-family="微软雅黑" font-size="22" font-weight="700" lineHeight="125%" opacity="1" size="22" text-anchor="middle" transform="rotate(0)" weight="700"><tspan id="SvgjsTspan1183" x="60" dy="27"><tspan id="SvgjsTspan1184">...</tspan></tspan></text></g></g></svg>